<mxfile host="Electron" agent="Mozilla/5.0 (Windows NT 10.0; Win64; x64) AppleWebKit/537.36 (KHTML, like Gecko) draw.io/24.7.17 Chrome/128.0.6613.36 Electron/32.0.1 Safari/537.36" version="24.7.17">
  <diagram id="C5RBs43oDa-KdzZeNtuy" name="Page-1">
    <mxGraphModel dx="1434" dy="844" grid="1" gridSize="10" guides="1" tooltips="1" connect="1" arrows="1" fold="1" page="1" pageScale="1" pageWidth="827" pageHeight="1169" background="none" math="0" shadow="1">
      <root>
        <mxCell id="WIyWlLk6GJQsqaUBKTNV-0" />
        <mxCell id="WIyWlLk6GJQsqaUBKTNV-1" parent="WIyWlLk6GJQsqaUBKTNV-0" />
        <mxCell id="hE5tsOtDsC6KmuDgz1xO-4" value="" style="edgeStyle=orthogonalEdgeStyle;rounded=0;orthogonalLoop=1;jettySize=auto;html=1;" parent="WIyWlLk6GJQsqaUBKTNV-1" source="sw0XocbQ4kUTriKsnevm-8" target="hE5tsOtDsC6KmuDgz1xO-3" edge="1">
          <mxGeometry relative="1" as="geometry" />
        </mxCell>
        <mxCell id="sw0XocbQ4kUTriKsnevm-8" value="Array &lt;b&gt;Predecesores&lt;/b&gt;&lt;div&gt;int &lt;b&gt;Nodo_inicial&lt;/b&gt;&lt;/div&gt;&lt;div&gt;&lt;div&gt;int&lt;b&gt; Nodo_fin&lt;/b&gt;&lt;/div&gt;&lt;/div&gt;" style="shape=parallelogram;html=1;strokeWidth=2;perimeter=parallelogramPerimeter;whiteSpace=wrap;rounded=0;arcSize=12;size=0.23;labelBackgroundColor=none;fillColor=#f5f5f5;strokeColor=#666666;fontColor=#333333;comic=0;shadow=1;jiggle=1;enumerate=0;deletable=1;shadowOpacity=35;" parent="WIyWlLk6GJQsqaUBKTNV-1" vertex="1">
          <mxGeometry x="690" y="385" width="183.51" height="70" as="geometry" />
        </mxCell>
        <mxCell id="hE5tsOtDsC6KmuDgz1xO-36" value="" style="edgeStyle=orthogonalEdgeStyle;rounded=0;orthogonalLoop=1;jettySize=auto;html=1;fontFamily=Helvetica;fontSize=12;fontColor=#333333;fontStyle=0;labelBackgroundColor=none;" parent="WIyWlLk6GJQsqaUBKTNV-1" source="Fxtu21GMjImPMMu1P6-F-2" target="sw0XocbQ4kUTriKsnevm-8" edge="1">
          <mxGeometry relative="1" as="geometry" />
        </mxCell>
        <mxCell id="Fxtu21GMjImPMMu1P6-F-2" value="Empezar" style="ellipse;whiteSpace=wrap;html=1;fillColor=#f5f5f5;strokeColor=#666666;fontColor=#333333;strokeWidth=2;rounded=0;arcSize=12;labelBackgroundColor=none;comic=0;shadow=1;jiggle=1;enumerate=0;deletable=1;shadowOpacity=35;" parent="WIyWlLk6GJQsqaUBKTNV-1" vertex="1">
          <mxGeometry x="919.9999999999999" y="380" width="80" height="80" as="geometry" />
        </mxCell>
        <mxCell id="Fxtu21GMjImPMMu1P6-F-64" style="edgeStyle=orthogonalEdgeStyle;rounded=0;orthogonalLoop=1;jettySize=auto;html=1;entryX=0;entryY=0.5;entryDx=0;entryDy=0;strokeColor=#FFFFFF;fontColor=default;labelBackgroundColor=none;" parent="WIyWlLk6GJQsqaUBKTNV-1" edge="1">
          <mxGeometry relative="1" as="geometry">
            <Array as="points">
              <mxPoint x="30" y="2130" />
              <mxPoint x="30" y="1895" />
            </Array>
            <mxPoint x="196" y="1895" as="targetPoint" />
          </mxGeometry>
        </mxCell>
        <mxCell id="hE5tsOtDsC6KmuDgz1xO-6" value="" style="edgeStyle=orthogonalEdgeStyle;rounded=0;orthogonalLoop=1;jettySize=auto;html=1;" parent="WIyWlLk6GJQsqaUBKTNV-1" source="hE5tsOtDsC6KmuDgz1xO-3" target="hE5tsOtDsC6KmuDgz1xO-5" edge="1">
          <mxGeometry relative="1" as="geometry" />
        </mxCell>
        <mxCell id="hE5tsOtDsC6KmuDgz1xO-3" value="Crear array&amp;nbsp;&lt;div&gt;vacio &lt;b&gt;camino&lt;/b&gt;&lt;/div&gt;" style="whiteSpace=wrap;html=1;fillColor=#f5f5f5;strokeColor=#666666;fontColor=#333333;strokeWidth=2;rounded=0;arcSize=12;labelBackgroundColor=none;comic=0;shadow=1;jiggle=1;shadowOpacity=35;" parent="WIyWlLk6GJQsqaUBKTNV-1" vertex="1">
          <mxGeometry x="530.005" y="390" width="120" height="60" as="geometry" />
        </mxCell>
        <mxCell id="hE5tsOtDsC6KmuDgz1xO-8" value="" style="edgeStyle=orthogonalEdgeStyle;rounded=0;orthogonalLoop=1;jettySize=auto;html=1;" parent="WIyWlLk6GJQsqaUBKTNV-1" source="hE5tsOtDsC6KmuDgz1xO-5" target="hE5tsOtDsC6KmuDgz1xO-7" edge="1">
          <mxGeometry relative="1" as="geometry" />
        </mxCell>
        <mxCell id="hE5tsOtDsC6KmuDgz1xO-5" value="Crear variable int &lt;b&gt;Nodo_actual&lt;/b&gt;" style="whiteSpace=wrap;html=1;fillColor=#f5f5f5;strokeColor=#666666;fontColor=#333333;strokeWidth=2;rounded=0;arcSize=12;labelBackgroundColor=none;comic=0;shadow=1;jiggle=1;shadowOpacity=35;" parent="WIyWlLk6GJQsqaUBKTNV-1" vertex="1">
          <mxGeometry x="361.76" y="390" width="120" height="60" as="geometry" />
        </mxCell>
        <mxCell id="hE5tsOtDsC6KmuDgz1xO-10" value="" style="edgeStyle=orthogonalEdgeStyle;rounded=0;orthogonalLoop=1;jettySize=auto;html=1;" parent="WIyWlLk6GJQsqaUBKTNV-1" source="hE5tsOtDsC6KmuDgz1xO-7" target="hE5tsOtDsC6KmuDgz1xO-9" edge="1">
          <mxGeometry relative="1" as="geometry" />
        </mxCell>
        <mxCell id="hE5tsOtDsC6KmuDgz1xO-7" value="&lt;b&gt;Nodo_actual&amp;nbsp;&lt;/b&gt;&lt;b style=&quot;background-color: initial;&quot;&gt;=&amp;nbsp;&lt;/b&gt;&lt;b style=&quot;background-color: initial;&quot;&gt;Nodo_fin&lt;/b&gt;" style="whiteSpace=wrap;html=1;fillColor=#f5f5f5;strokeColor=#666666;fontColor=#333333;strokeWidth=2;rounded=0;arcSize=12;labelBackgroundColor=none;comic=0;shadow=1;jiggle=1;shadowOpacity=35;fontStyle=0" parent="WIyWlLk6GJQsqaUBKTNV-1" vertex="1">
          <mxGeometry x="341" y="490" width="162" height="60" as="geometry" />
        </mxCell>
        <mxCell id="hE5tsOtDsC6KmuDgz1xO-15" value="" style="edgeStyle=orthogonalEdgeStyle;rounded=0;orthogonalLoop=1;jettySize=auto;html=1;" parent="WIyWlLk6GJQsqaUBKTNV-1" source="hE5tsOtDsC6KmuDgz1xO-9" target="hE5tsOtDsC6KmuDgz1xO-14" edge="1">
          <mxGeometry relative="1" as="geometry" />
        </mxCell>
        <mxCell id="hE5tsOtDsC6KmuDgz1xO-22" value="" style="edgeStyle=orthogonalEdgeStyle;rounded=0;orthogonalLoop=1;jettySize=auto;html=1;" parent="WIyWlLk6GJQsqaUBKTNV-1" source="hE5tsOtDsC6KmuDgz1xO-9" target="hE5tsOtDsC6KmuDgz1xO-21" edge="1">
          <mxGeometry relative="1" as="geometry" />
        </mxCell>
        <mxCell id="hE5tsOtDsC6KmuDgz1xO-9" value="¿Nodo_actual = Nodo_inicial?" style="rhombus;whiteSpace=wrap;html=1;fillColor=#f5f5f5;strokeColor=#666666;fontColor=#333333;strokeWidth=2;rounded=0;arcSize=12;labelBackgroundColor=none;comic=0;shadow=1;jiggle=1;shadowOpacity=35;fontStyle=0;" parent="WIyWlLk6GJQsqaUBKTNV-1" vertex="1">
          <mxGeometry x="332.76" y="586" width="178" height="95" as="geometry" />
        </mxCell>
        <mxCell id="hE5tsOtDsC6KmuDgz1xO-13" value="No" style="text;html=1;align=center;verticalAlign=middle;resizable=0;points=[];autosize=1;strokeColor=none;fillColor=none;" parent="WIyWlLk6GJQsqaUBKTNV-1" vertex="1">
          <mxGeometry x="419" y="670" width="40" height="30" as="geometry" />
        </mxCell>
        <mxCell id="hE5tsOtDsC6KmuDgz1xO-18" value="" style="edgeStyle=orthogonalEdgeStyle;rounded=0;orthogonalLoop=1;jettySize=auto;html=1;" parent="WIyWlLk6GJQsqaUBKTNV-1" source="hE5tsOtDsC6KmuDgz1xO-14" target="hE5tsOtDsC6KmuDgz1xO-17" edge="1">
          <mxGeometry relative="1" as="geometry" />
        </mxCell>
        <mxCell id="hE5tsOtDsC6KmuDgz1xO-14" value="&lt;b&gt;camino&lt;/b&gt; = [&lt;b&gt;Nodo_inicial]&lt;/b&gt;" style="whiteSpace=wrap;html=1;fillColor=#f5f5f5;strokeColor=#666666;fontColor=#333333;strokeWidth=2;rounded=0;arcSize=12;labelBackgroundColor=none;comic=0;shadow=1;jiggle=1;shadowOpacity=35;fontStyle=0;" parent="WIyWlLk6GJQsqaUBKTNV-1" vertex="1">
          <mxGeometry x="560.76" y="609.75" width="160.24" height="47.5" as="geometry" />
        </mxCell>
        <mxCell id="hE5tsOtDsC6KmuDgz1xO-16" value="Sí" style="text;html=1;align=center;verticalAlign=middle;resizable=0;points=[];autosize=1;strokeColor=none;fillColor=none;" parent="WIyWlLk6GJQsqaUBKTNV-1" vertex="1">
          <mxGeometry x="505" y="609" width="30" height="30" as="geometry" />
        </mxCell>
        <mxCell id="hE5tsOtDsC6KmuDgz1xO-38" value="" style="edgeStyle=orthogonalEdgeStyle;rounded=0;orthogonalLoop=1;jettySize=auto;html=1;fontFamily=Helvetica;fontSize=12;fontColor=#333333;fontStyle=0;labelBackgroundColor=none;" parent="WIyWlLk6GJQsqaUBKTNV-1" source="hE5tsOtDsC6KmuDgz1xO-17" target="hE5tsOtDsC6KmuDgz1xO-32" edge="1">
          <mxGeometry relative="1" as="geometry" />
        </mxCell>
        <mxCell id="hE5tsOtDsC6KmuDgz1xO-17" value="Devolver &lt;b&gt;camino&lt;/b&gt;" style="whiteSpace=wrap;html=1;fillColor=#f5f5f5;strokeColor=#666666;fontColor=#333333;strokeWidth=2;rounded=0;arcSize=12;labelBackgroundColor=none;comic=0;shadow=1;jiggle=1;shadowOpacity=35;fontStyle=0;" parent="WIyWlLk6GJQsqaUBKTNV-1" vertex="1">
          <mxGeometry x="771" y="730" width="120" height="60" as="geometry" />
        </mxCell>
        <mxCell id="hE5tsOtDsC6KmuDgz1xO-24" value="" style="edgeStyle=orthogonalEdgeStyle;rounded=0;orthogonalLoop=1;jettySize=auto;html=1;" parent="WIyWlLk6GJQsqaUBKTNV-1" source="hE5tsOtDsC6KmuDgz1xO-21" target="hE5tsOtDsC6KmuDgz1xO-23" edge="1">
          <mxGeometry relative="1" as="geometry" />
        </mxCell>
        <mxCell id="hE5tsOtDsC6KmuDgz1xO-21" value="Agregar&amp;nbsp;&lt;b&gt;Nodo_actual&amp;nbsp;&lt;/b&gt;&lt;div&gt;a&lt;b&gt; camino&lt;/b&gt;&lt;/div&gt;" style="whiteSpace=wrap;html=1;fillColor=#f5f5f5;strokeColor=#666666;fontColor=#333333;strokeWidth=2;rounded=0;arcSize=12;labelBackgroundColor=none;comic=0;shadow=1;jiggle=1;shadowOpacity=35;fontStyle=0;" parent="WIyWlLk6GJQsqaUBKTNV-1" vertex="1">
          <mxGeometry x="342.94" y="730" width="158.12" height="60" as="geometry" />
        </mxCell>
        <mxCell id="ZU4h1v9fAMAjbo0trx5t-0" value="" style="edgeStyle=orthogonalEdgeStyle;rounded=0;orthogonalLoop=1;jettySize=auto;html=1;" edge="1" parent="WIyWlLk6GJQsqaUBKTNV-1" source="hE5tsOtDsC6KmuDgz1xO-23" target="hE5tsOtDsC6KmuDgz1xO-26">
          <mxGeometry relative="1" as="geometry" />
        </mxCell>
        <mxCell id="hE5tsOtDsC6KmuDgz1xO-23" value="&lt;b style=&quot;forced-color-adjust: none; color: rgb(51, 51, 51); font-family: Helvetica; font-size: 12px; font-style: normal; font-variant-ligatures: normal; font-variant-caps: normal; letter-spacing: normal; orphans: 2; text-align: center; text-indent: 0px; text-transform: none; widows: 2; word-spacing: 0px; -webkit-text-stroke-width: 0px; white-space: normal; background-color: initial; text-decoration-thickness: initial; text-decoration-style: initial; text-decoration-color: initial;&quot;&gt;Nodo_actual &lt;/b&gt;&lt;span style=&quot;forced-color-adjust: none; color: rgb(51, 51, 51); font-family: Helvetica; font-size: 12px; font-style: normal; font-variant-ligatures: normal; font-variant-caps: normal; letter-spacing: normal; orphans: 2; text-align: center; text-indent: 0px; text-transform: none; widows: 2; word-spacing: 0px; -webkit-text-stroke-width: 0px; white-space: normal; background-color: initial; text-decoration-thickness: initial; text-decoration-style: initial; text-decoration-color: initial;&quot;&gt;=&lt;/span&gt;&lt;b style=&quot;forced-color-adjust: none; color: rgb(51, 51, 51); font-family: Helvetica; font-size: 12px; font-style: normal; font-variant-ligatures: normal; font-variant-caps: normal; letter-spacing: normal; orphans: 2; text-align: center; text-indent: 0px; text-transform: none; widows: 2; word-spacing: 0px; -webkit-text-stroke-width: 0px; white-space: normal; background-color: initial; text-decoration-thickness: initial; text-decoration-style: initial; text-decoration-color: initial;&quot;&gt; Predecesores[&lt;b&gt;Nodo_actual&lt;/b&gt;]&lt;/b&gt;" style="whiteSpace=wrap;html=1;fillColor=#f5f5f5;strokeColor=#666666;fontColor=#333333;strokeWidth=2;rounded=0;arcSize=12;labelBackgroundColor=none;comic=0;shadow=1;jiggle=1;shadowOpacity=35;fontStyle=0;align=center;verticalAlign=middle;fontFamily=Helvetica;fontSize=12;" parent="WIyWlLk6GJQsqaUBKTNV-1" vertex="1">
          <mxGeometry x="558.47" y="730" width="162.53" height="60" as="geometry" />
        </mxCell>
        <mxCell id="hE5tsOtDsC6KmuDgz1xO-25" value="" style="edgeStyle=orthogonalEdgeStyle;rounded=0;orthogonalLoop=1;jettySize=auto;html=1;" parent="WIyWlLk6GJQsqaUBKTNV-1" source="hE5tsOtDsC6KmuDgz1xO-26" target="hE5tsOtDsC6KmuDgz1xO-28" edge="1">
          <mxGeometry relative="1" as="geometry" />
        </mxCell>
        <mxCell id="ZU4h1v9fAMAjbo0trx5t-1" style="edgeStyle=orthogonalEdgeStyle;rounded=0;orthogonalLoop=1;jettySize=auto;html=1;entryX=0.5;entryY=1;entryDx=0;entryDy=0;" edge="1" parent="WIyWlLk6GJQsqaUBKTNV-1" source="hE5tsOtDsC6KmuDgz1xO-26" target="hE5tsOtDsC6KmuDgz1xO-21">
          <mxGeometry relative="1" as="geometry" />
        </mxCell>
        <mxCell id="hE5tsOtDsC6KmuDgz1xO-26" value="¿Nodo_actual = Nodo_inicial?" style="rhombus;whiteSpace=wrap;html=1;fillColor=#f5f5f5;strokeColor=#666666;fontColor=#333333;strokeWidth=2;rounded=0;arcSize=12;labelBackgroundColor=none;comic=0;shadow=1;jiggle=1;shadowOpacity=35;fontStyle=0;" parent="WIyWlLk6GJQsqaUBKTNV-1" vertex="1">
          <mxGeometry x="550.74" y="840" width="178" height="95" as="geometry" />
        </mxCell>
        <mxCell id="hE5tsOtDsC6KmuDgz1xO-37" style="edgeStyle=orthogonalEdgeStyle;rounded=0;orthogonalLoop=1;jettySize=auto;html=1;entryX=0.5;entryY=1;entryDx=0;entryDy=0;fontFamily=Helvetica;fontSize=12;fontColor=#333333;fontStyle=0;labelBackgroundColor=none;" parent="WIyWlLk6GJQsqaUBKTNV-1" source="hE5tsOtDsC6KmuDgz1xO-28" target="hE5tsOtDsC6KmuDgz1xO-17" edge="1">
          <mxGeometry relative="1" as="geometry" />
        </mxCell>
        <mxCell id="hE5tsOtDsC6KmuDgz1xO-28" value="Agregar&amp;nbsp;&lt;b&gt;Nodo_actual&amp;nbsp;&lt;/b&gt;&lt;div&gt;a&lt;b&gt;&amp;nbsp;camino&lt;/b&gt;&lt;/div&gt;" style="whiteSpace=wrap;html=1;fillColor=#f5f5f5;strokeColor=#666666;fontColor=#333333;strokeWidth=2;rounded=0;arcSize=12;labelBackgroundColor=none;comic=0;shadow=1;jiggle=1;shadowOpacity=35;fontStyle=0;" parent="WIyWlLk6GJQsqaUBKTNV-1" vertex="1">
          <mxGeometry x="761" y="853.75" width="140" height="67.5" as="geometry" />
        </mxCell>
        <mxCell id="hE5tsOtDsC6KmuDgz1xO-29" value="Sí" style="text;html=1;align=center;verticalAlign=middle;resizable=0;points=[];autosize=1;strokeColor=none;fillColor=none;" parent="WIyWlLk6GJQsqaUBKTNV-1" vertex="1">
          <mxGeometry x="720" y="860" width="30" height="30" as="geometry" />
        </mxCell>
        <mxCell id="hE5tsOtDsC6KmuDgz1xO-32" value="Fin" style="ellipse;whiteSpace=wrap;html=1;fillColor=#f5f5f5;strokeColor=#666666;fontColor=#333333;strokeWidth=2;rounded=0;arcSize=12;labelBackgroundColor=none;comic=0;shadow=1;jiggle=1;shadowOpacity=35;fontStyle=0;" parent="WIyWlLk6GJQsqaUBKTNV-1" vertex="1">
          <mxGeometry x="920.0000000000001" y="720" width="80" height="80" as="geometry" />
        </mxCell>
        <mxCell id="hE5tsOtDsC6KmuDgz1xO-35" value="No" style="text;html=1;align=center;verticalAlign=middle;resizable=0;points=[];autosize=1;strokeColor=none;fillColor=none;fontFamily=Helvetica;fontSize=12;fontColor=#333333;fontStyle=0;labelBackgroundColor=none;" parent="WIyWlLk6GJQsqaUBKTNV-1" vertex="1">
          <mxGeometry x="518.47" y="860" width="40" height="30" as="geometry" />
        </mxCell>
      </root>
    </mxGraphModel>
  </diagram>
</mxfile>
